<mxfile host="Electron" modified="2024-07-25T00:23:58.089Z" agent="Mozilla/5.0 (Windows NT 10.0; Win64; x64) AppleWebKit/537.36 (KHTML, like Gecko) draw.io/24.6.4 Chrome/124.0.6367.207 Electron/30.0.6 Safari/537.36" etag="vKTiez9HvuzJH3pGfIwk" version="24.6.4" type="device">
  <diagram id="C5RBs43oDa-KdzZeNtuy" name="Page-1">
    <mxGraphModel dx="1050" dy="719" grid="1" gridSize="10" guides="1" tooltips="1" connect="1" arrows="1" fold="1" page="1" pageScale="1" pageWidth="827" pageHeight="800" background="none" math="0" shadow="0">
      <root>
        <mxCell id="WIyWlLk6GJQsqaUBKTNV-0" />
        <mxCell id="WIyWlLk6GJQsqaUBKTNV-1" parent="WIyWlLk6GJQsqaUBKTNV-0" />
        <mxCell id="EXkezWVpcP3GrgDdagUP-6" style="edgeStyle=none;curved=1;rounded=0;orthogonalLoop=1;jettySize=auto;html=1;entryX=0.5;entryY=0;entryDx=0;entryDy=0;fontSize=12;startSize=8;endSize=8;" parent="WIyWlLk6GJQsqaUBKTNV-1" source="EXkezWVpcP3GrgDdagUP-0" target="EXkezWVpcP3GrgDdagUP-2" edge="1">
          <mxGeometry relative="1" as="geometry" />
        </mxCell>
        <mxCell id="EXkezWVpcP3GrgDdagUP-0" value="" style="rounded=1;whiteSpace=wrap;html=1;" parent="WIyWlLk6GJQsqaUBKTNV-1" vertex="1">
          <mxGeometry x="333" y="210" width="120" height="60" as="geometry" />
        </mxCell>
        <mxCell id="EXkezWVpcP3GrgDdagUP-1" value="select a dataset" style="text;html=1;align=center;verticalAlign=middle;whiteSpace=wrap;rounded=0;fontSize=16;" parent="WIyWlLk6GJQsqaUBKTNV-1" vertex="1">
          <mxGeometry x="363" y="225" width="60" height="30" as="geometry" />
        </mxCell>
        <mxCell id="EXkezWVpcP3GrgDdagUP-8" style="edgeStyle=none;curved=1;rounded=0;orthogonalLoop=1;jettySize=auto;html=1;entryX=0.5;entryY=0;entryDx=0;entryDy=0;fontSize=12;startSize=8;endSize=8;" parent="WIyWlLk6GJQsqaUBKTNV-1" source="EXkezWVpcP3GrgDdagUP-2" target="EXkezWVpcP3GrgDdagUP-7" edge="1">
          <mxGeometry relative="1" as="geometry" />
        </mxCell>
        <mxCell id="EXkezWVpcP3GrgDdagUP-2" value="" style="rounded=1;whiteSpace=wrap;html=1;" parent="WIyWlLk6GJQsqaUBKTNV-1" vertex="1">
          <mxGeometry x="333" y="330" width="120" height="60" as="geometry" />
        </mxCell>
        <mxCell id="EXkezWVpcP3GrgDdagUP-3" value="select a statistic" style="text;html=1;align=center;verticalAlign=middle;whiteSpace=wrap;rounded=0;fontSize=16;" parent="WIyWlLk6GJQsqaUBKTNV-1" vertex="1">
          <mxGeometry x="363" y="345" width="60" height="30" as="geometry" />
        </mxCell>
        <mxCell id="EXkezWVpcP3GrgDdagUP-5" value="" style="rounded=1;whiteSpace=wrap;html=1;" parent="WIyWlLk6GJQsqaUBKTNV-1" vertex="1">
          <mxGeometry x="333" y="450" width="120" height="60" as="geometry" />
        </mxCell>
        <mxCell id="EXkezWVpcP3GrgDdagUP-13" style="edgeStyle=none;curved=1;rounded=0;orthogonalLoop=1;jettySize=auto;html=1;entryX=0.5;entryY=0;entryDx=0;entryDy=0;fontSize=12;startSize=8;endSize=8;" parent="WIyWlLk6GJQsqaUBKTNV-1" source="EXkezWVpcP3GrgDdagUP-7" target="EXkezWVpcP3GrgDdagUP-11" edge="1">
          <mxGeometry relative="1" as="geometry" />
        </mxCell>
        <mxCell id="EXkezWVpcP3GrgDdagUP-7" value="select the player(s)" style="text;html=1;align=center;verticalAlign=middle;whiteSpace=wrap;rounded=0;fontSize=16;" parent="WIyWlLk6GJQsqaUBKTNV-1" vertex="1">
          <mxGeometry x="333" y="447.5" width="120" height="62.5" as="geometry" />
        </mxCell>
        <mxCell id="EXkezWVpcP3GrgDdagUP-11" value="" style="rounded=1;whiteSpace=wrap;html=1;" parent="WIyWlLk6GJQsqaUBKTNV-1" vertex="1">
          <mxGeometry x="333" y="570" width="120" height="60" as="geometry" />
        </mxCell>
        <mxCell id="EXkezWVpcP3GrgDdagUP-16" style="edgeStyle=none;curved=1;rounded=0;orthogonalLoop=1;jettySize=auto;html=1;entryX=0.5;entryY=0;entryDx=0;entryDy=0;fontSize=12;startSize=8;endSize=8;exitX=0.5;exitY=1;exitDx=0;exitDy=0;" parent="WIyWlLk6GJQsqaUBKTNV-1" source="EXkezWVpcP3GrgDdagUP-11" target="EXkezWVpcP3GrgDdagUP-14" edge="1">
          <mxGeometry relative="1" as="geometry" />
        </mxCell>
        <mxCell id="EXkezWVpcP3GrgDdagUP-12" value="select an algorithm" style="text;html=1;align=center;verticalAlign=middle;whiteSpace=wrap;rounded=0;fontSize=16;" parent="WIyWlLk6GJQsqaUBKTNV-1" vertex="1">
          <mxGeometry x="338" y="575" width="110" height="50" as="geometry" />
        </mxCell>
        <mxCell id="EXkezWVpcP3GrgDdagUP-14" value="" style="rounded=1;whiteSpace=wrap;html=1;" parent="WIyWlLk6GJQsqaUBKTNV-1" vertex="1">
          <mxGeometry x="333" y="685" width="120" height="60" as="geometry" />
        </mxCell>
        <mxCell id="EXkezWVpcP3GrgDdagUP-17" value="sort the data" style="text;html=1;align=center;verticalAlign=middle;whiteSpace=wrap;rounded=0;fontSize=16;" parent="WIyWlLk6GJQsqaUBKTNV-1" vertex="1">
          <mxGeometry x="333" y="687" width="120" height="55" as="geometry" />
        </mxCell>
        <mxCell id="EXkezWVpcP3GrgDdagUP-18" value="&lt;h1&gt;User Flow&lt;/h1&gt;" style="text;html=1;align=center;verticalAlign=middle;whiteSpace=wrap;rounded=0;fontSize=16;textShadow=0;labelBorderColor=none;" parent="WIyWlLk6GJQsqaUBKTNV-1" vertex="1">
          <mxGeometry x="278" y="40" width="230" height="40" as="geometry" />
        </mxCell>
        <mxCell id="EXkezWVpcP3GrgDdagUP-36" style="edgeStyle=none;curved=1;rounded=0;orthogonalLoop=1;jettySize=auto;html=1;entryX=1;entryY=0.5;entryDx=0;entryDy=0;fontSize=12;startSize=8;endSize=8;" parent="WIyWlLk6GJQsqaUBKTNV-1" source="EXkezWVpcP3GrgDdagUP-22" target="EXkezWVpcP3GrgDdagUP-11" edge="1">
          <mxGeometry relative="1" as="geometry" />
        </mxCell>
        <mxCell id="ohYMIEPotXj-GpFXhiP2-3" style="edgeStyle=none;curved=1;rounded=0;orthogonalLoop=1;jettySize=auto;html=1;entryX=1;entryY=0.5;entryDx=0;entryDy=0;fontSize=12;startSize=8;endSize=8;" edge="1" parent="WIyWlLk6GJQsqaUBKTNV-1" source="EXkezWVpcP3GrgDdagUP-22" target="EXkezWVpcP3GrgDdagUP-0">
          <mxGeometry relative="1" as="geometry" />
        </mxCell>
        <mxCell id="ohYMIEPotXj-GpFXhiP2-5" style="edgeStyle=none;curved=1;rounded=0;orthogonalLoop=1;jettySize=auto;html=1;entryX=1;entryY=0.5;entryDx=0;entryDy=0;fontSize=12;startSize=8;endSize=8;" edge="1" parent="WIyWlLk6GJQsqaUBKTNV-1" source="EXkezWVpcP3GrgDdagUP-22" target="EXkezWVpcP3GrgDdagUP-7">
          <mxGeometry relative="1" as="geometry" />
        </mxCell>
        <mxCell id="EXkezWVpcP3GrgDdagUP-22" value="" style="rhombus;whiteSpace=wrap;html=1;" parent="WIyWlLk6GJQsqaUBKTNV-1" vertex="1">
          <mxGeometry x="594" y="380" width="100" height="100" as="geometry" />
        </mxCell>
        <mxCell id="ohYMIEPotXj-GpFXhiP2-4" style="edgeStyle=none;curved=1;rounded=0;orthogonalLoop=1;jettySize=auto;html=1;entryX=1;entryY=0.5;entryDx=0;entryDy=0;fontSize=12;startSize=8;endSize=8;exitX=0.148;exitY=0.366;exitDx=0;exitDy=0;exitPerimeter=0;" edge="1" parent="WIyWlLk6GJQsqaUBKTNV-1" source="EXkezWVpcP3GrgDdagUP-22" target="EXkezWVpcP3GrgDdagUP-2">
          <mxGeometry relative="1" as="geometry" />
        </mxCell>
        <mxCell id="EXkezWVpcP3GrgDdagUP-23" value="modify" style="text;html=1;align=center;verticalAlign=middle;whiteSpace=wrap;rounded=0;fontSize=16;" parent="WIyWlLk6GJQsqaUBKTNV-1" vertex="1">
          <mxGeometry x="614" y="415" width="60" height="30" as="geometry" />
        </mxCell>
        <mxCell id="EXkezWVpcP3GrgDdagUP-33" value="" style="curved=1;endArrow=classic;html=1;rounded=0;fontSize=12;startSize=8;endSize=8;entryX=0.5;entryY=1;entryDx=0;entryDy=0;" parent="WIyWlLk6GJQsqaUBKTNV-1" edge="1" target="EXkezWVpcP3GrgDdagUP-22">
          <mxGeometry width="50" height="50" relative="1" as="geometry">
            <mxPoint x="453" y="720" as="sourcePoint" />
            <mxPoint x="633" y="550" as="targetPoint" />
            <Array as="points">
              <mxPoint x="503" y="720" />
              <mxPoint x="604" y="630" />
            </Array>
          </mxGeometry>
        </mxCell>
        <mxCell id="EXkezWVpcP3GrgDdagUP-37" value="" style="shape=xor;whiteSpace=wrap;html=1;" parent="WIyWlLk6GJQsqaUBKTNV-1" vertex="1">
          <mxGeometry x="133" y="674" width="110" height="80" as="geometry" />
        </mxCell>
        <mxCell id="EXkezWVpcP3GrgDdagUP-38" style="edgeStyle=none;curved=1;rounded=0;orthogonalLoop=1;jettySize=auto;html=1;entryX=1;entryY=0.5;entryDx=0;entryDy=0;entryPerimeter=0;fontSize=12;startSize=8;endSize=8;" parent="WIyWlLk6GJQsqaUBKTNV-1" source="EXkezWVpcP3GrgDdagUP-17" target="EXkezWVpcP3GrgDdagUP-37" edge="1">
          <mxGeometry relative="1" as="geometry" />
        </mxCell>
        <mxCell id="EXkezWVpcP3GrgDdagUP-39" value="exit website" style="text;html=1;align=center;verticalAlign=middle;whiteSpace=wrap;rounded=0;fontSize=16;" parent="WIyWlLk6GJQsqaUBKTNV-1" vertex="1">
          <mxGeometry x="163" y="685" width="70" height="53" as="geometry" />
        </mxCell>
        <mxCell id="ohYMIEPotXj-GpFXhiP2-2" style="edgeStyle=none;curved=1;rounded=0;orthogonalLoop=1;jettySize=auto;html=1;entryX=0.5;entryY=0;entryDx=0;entryDy=0;fontSize=12;startSize=8;endSize=8;" edge="1" parent="WIyWlLk6GJQsqaUBKTNV-1" source="ohYMIEPotXj-GpFXhiP2-0" target="EXkezWVpcP3GrgDdagUP-0">
          <mxGeometry relative="1" as="geometry" />
        </mxCell>
        <mxCell id="ohYMIEPotXj-GpFXhiP2-0" value="" style="rounded=1;whiteSpace=wrap;html=1;" vertex="1" parent="WIyWlLk6GJQsqaUBKTNV-1">
          <mxGeometry x="333" y="100" width="120" height="60" as="geometry" />
        </mxCell>
        <mxCell id="ohYMIEPotXj-GpFXhiP2-1" value="landing page" style="text;html=1;align=center;verticalAlign=middle;whiteSpace=wrap;rounded=0;fontSize=16;" vertex="1" parent="WIyWlLk6GJQsqaUBKTNV-1">
          <mxGeometry x="363" y="115" width="60" height="30" as="geometry" />
        </mxCell>
      </root>
    </mxGraphModel>
  </diagram>
</mxfile>
